# xmcd
# 
# Track frame offsets:
#     150
#     13522
#     25695
#     39886
#     58317
#     73523
#     89853
#     105441
#     123746
#     140782
#     155032
#     168171
#     184149
#     200035
# 
# Disc length: 2920
# 
# Revision: 0
# Processed by: cddbd v1.5.2PL0 Copyright (c) Steve Scherf et al.
# Submitted via: fre:ac v1.0.17
# 
DISCID=c90b660e
DTITLE=Kenny Rogers - The Kenny Rogers Singles Album
DYEAR=1978
DGENRE=Country
TTITLE0=Ruby, Don't Take Your Love To
TTITLE1=Rueben James
TTITLE2=But You Know I Love You
TTITLE3=Something's Burning
TTITLE4=Just Dropped In
TTITLE5=Lucille
TTITLE6=Daytime Friends
TTITLE7=While The Feeling's Good
TTITLE8=Love Lifted Me
TTITLE9=Today I Started Loving You Aga
TTITLE10=Love Or Something Like It
TTITLE11=Sail Away
TTITLE12=The Gambler
TTITLE13=She Believes In Me
EXTD=
EXTT0=
EXTT1=
EXTT2=
EXTT3=
EXTT4=
EXTT5=
EXTT6=
EXTT7=
EXTT8=
EXTT9=
EXTT10=
EXTT11=
EXTT12=
EXTT13=
PLAYORDER=
